<svg width="2560" height="380" viewBox="0 0 2560 380" fill="none" xmlns="http://www.w3.org/2000/svg">
  <path
    d="M0 187.274L142.222 136.699C284.444 86.1235 568.889 -15.0271 853.333 1.88401C1137.78 18.1629 1422.22 154.084 1706.67 178.898C1991.11 204.659 2275.56 119.314 2417.78 77.747L2560 35.5482V339H2417.78C2275.56 339 1991.11 339 1706.67 339C1422.22 339 1137.78 339 853.333 339C568.889 339 284.444 339 142.222 339H0V187.274Z"
    fill="#46A5FF" />
  <rect width="2560" height="41" transform="matrix(-1 0 0 1 2560 339)" fill="#46A5FF" />
  <path
    d="M0 228.274L142.222 177.699C284.444 127.124 568.889 25.9729 853.333 42.884C1137.78 59.1629 1422.22 195.084 1706.67 219.898C1991.11 245.659 2275.56 160.314 2417.78 118.747L2560 76.5482V380H2417.78C2275.56 380 1991.11 380 1706.67 380C1422.22 380 1137.78 380 853.333 380C568.889 380 284.444 380 142.222 380H0V228.274Z"
    fill="#F4FAFF" fill-opacity="0.8" />
</svg>